<?xml version="1.0" encoding="utf-8"?>
<!-- Generator: Adobe Illustrator 19.0.0, SVG Export Plug-In . SVG Version: 6.00 Build 0)  -->
<!DOCTYPE svg PUBLIC "-//W3C//DTD SVG 1.1//EN" "http://www.w3.org/Graphics/SVG/1.1/DTD/svg11.dtd">
<svg version="1.1" id="hubscale_logo" xmlns="http://www.w3.org/2000/svg" xmlns:xlink="http://www.w3.org/1999/xlink" x="0px"
	 y="0px" viewBox="0 0 1906 474" style="enable-background:new 0 0 1906 474;" xml:space="preserve">
<style type="text/css">
	.st0{fill:#12E1B6;}
	.st1{fill:#303CAD;}
</style>
<path id="XMLID_4_" class="st0" d="M160.2,442.1c-6.2,0-11.7-3.3-14.1-8.1c-1-2-1.1-4.3-0.7-6.5l4.4-23.8c0.2-0.9,1-1.6,2-1.6h50.9
	c1,0,1.8,0.7,2,1.6l4.4,23.8c0.4,2.2,0.3,4.5-0.7,6.5c-2.4,4.8-7.9,8.1-14.1,8.1H160.2z"/>
<path class="st1" d="M660.8,297.1v104h-46.6v-90.3c0-20.5-13.4-33.2-31.9-33.2c-11.7,0-24.5,1.7-38.3,4v119.5h-46.3V162.8H544v76.5
	c17.1-2.3,34.6-4,49.3-4C633.6,235.3,660.8,259.8,660.8,297.1z"/>
<path class="st1" d="M862.2,397.7c-20.5,3.7-64.4,8.1-95.6,8.1c-39.6,0-67.5-16.8-67.5-61.4v-104h46.6v93
	c0,23.2,10.7,33.2,31.9,33.2c11.7,0,24.5-1,37.9-2.4V240.4h46.6V397.7z"/>
<path class="st1" d="M949.3,239c11.1-2,28.9-3.7,41.6-3.7c56,0,83.2,33.6,83.6,83.9c0,56-34.2,85.6-77.2,85.6
	c-24.2,0-43.6,0.3-94.6-6V162.8h46.6V239z M949.3,277.6v86.9c19.5,2,31.9,2.7,37.2,2.7c29.5,0,43-19.1,43-48
	c0-25.8-11.1-45.3-45.3-45.3C975.5,273.9,960.8,275.3,949.3,277.6z"/>
<path class="st1" d="M1106.1,354.8c27.2,10.4,49.7,14.1,65.1,14.1c16.1,0,27.5-3.7,27.5-12.4c0-12.8-22.5-14.4-43-18.5
	c-36.9-7-55.4-20.5-55.4-48.3c0-33.9,27.2-53.7,70.5-53.7c24.2,0,51.7,6,67.5,12.1l-10.4,35.2c-22.1-6.4-44.6-11.1-58.7-11.1
	c-14.8,0-23.2,5.4-23.2,13.8c0,12.4,17.1,13.4,40.6,18.1c36.9,7.4,55.7,17.8,55.7,48c0,37.2-29.9,54-72.8,54
	c-18.8,0-45.6-3.4-72.8-14.1L1106.1,354.8z"/>
<path class="st1" d="M1406.7,279.3c-18.8-4-33.9-6.7-45.3-6.7c-31.9,0-51,19.5-51,47.3c0,28.2,19.8,46.3,48.3,46.3
	c11.1,0,29.9-2.7,48.3-7l6,36.9c-18.1,6-39.6,10.1-57.7,10.1c-53,0-90.9-33.9-90.9-86.6c0-52.7,37.6-85.9,92.6-85.9
	c15.8,0,37.9,3,56,9.1L1406.7,279.3z"/>
<path class="st1" d="M1603.6,243v158.1h-46.6v-11.4c-13.1,10.1-28.9,16.4-48.3,16.4c-44.6,0-77.2-33.2-77.2-86.2
	c1-51,29.5-84.6,80.5-84.6C1546.2,235.3,1565,238,1603.6,243z M1477,321.2c0,26.8,15.4,46,39.3,46c13.4,0,26.8-4.4,40.6-15.8v-75.5
	c-10.7-1-22.8-2-37.6-2C1488.1,273.9,1477,294.4,1477,321.2z"/>
<path class="st1" d="M1690.9,401.1h-46.6V162.8h46.6V401.1z"/>
<path class="st1" d="M1885.3,305.1c0,14.8-0.7,19.1-3,32.6h-112.4c6,17.1,21.8,27.9,45.6,27.9c13.1,0,29.9-2.7,57-8.4l6.4,36.6
	c-25.2,8.1-46.3,12.4-64.8,12.4c-61.7,0-93.3-37.6-93.3-85.6c0-52,36.6-85.6,84.9-85.6C1851.1,235,1884.6,263.2,1885.3,305.1z
	 M1767.9,304.4h75.8c-1-19.8-16.1-33.2-36.9-33.2C1786,271.2,1772.2,284.3,1767.9,304.4z"/>
<path class="st0" d="M177,22.1c-88.3,0-159.9,43.5-159.9,131.8c0,88.3,123.5,208.2,159.9,208.2c36.4,0,159.9-119.9,159.9-208.2
	C336.9,65.6,265.3,22.1,177,22.1z M237.1,202.1C237,202.1,237,202.1,237.1,202.1L237.1,202.1H117v0c-22-0.1-39.9-17.9-39.9-40
	s17.9-39.9,39.9-40v0h3.5c8.2-23.3,30.5-40,56.6-40s48.3,16.7,56.6,40h3.3v0c0,0,0.1,0,0.1,0c22.1,0,40,17.9,40,40
	C277.1,184.2,259.1,202.1,237.1,202.1z"/>
</svg>
