<?xml version="1.0" encoding="utf-8"?>
<!-- Generator: Adobe Illustrator 21.1.0, SVG Export Plug-In . SVG Version: 6.00 Build 0)  -->
<svg version="1.1" id="Layer_1" xmlns="http://www.w3.org/2000/svg" xmlns:xlink="http://www.w3.org/1999/xlink" x="0px" y="0px"
	 viewBox="0 0 50 50" style="enable-background:new 0 0 50 50;" xml:space="preserve">
<style type="text/css">
	.st0{fill:#12DABD;}
</style>
<g>
	<path class="st0" d="M36.9,18.3c-0.4-3.6-3.5-6.4-7.2-6.4c-2.4,0-4.5,1.2-5.8,3c0.2,0,0.3,0,0.5,0c5.4,0,10,3.6,11.4,8.7
		c1.5,0.3,3,1.1,4.1,2.3c0.1,0.1,0.2,0.2,0.3,0.3c0.8-0.8,1.4-2,1.4-3.3C41.5,20.4,39.4,18.3,36.9,18.3L36.9,18.3z M36.9,18.3"/>
	<path class="st0" d="M33.9,25.6c-0.6-4.8-4.6-8.5-9.6-8.5c-4.9,0-9,3.7-9.6,8.5c-3.4,0-6.2,2.8-6.2,6.2c0,3.4,2.8,6.2,6.2,6.2h19.2
		c3.4,0,6.2-2.8,6.2-6.2C40.1,28.4,37.3,25.6,33.9,25.6L33.9,25.6z M33.9,25.6"/>
</g>
</svg>
