<?xml version="1.0" encoding="utf-8"?>
<!-- Generator: Adobe Illustrator 21.1.0, SVG Export Plug-In . SVG Version: 6.00 Build 0)  -->
<svg version="1.1" id="Layer_1" xmlns="http://www.w3.org/2000/svg" xmlns:xlink="http://www.w3.org/1999/xlink" x="0px" y="0px"
	 viewBox="0 0 50 50" style="enable-background:new 0 0 50 50;" xml:space="preserve">
<style type="text/css">
	.st0{fill:#12DABD;}
</style>
<g>
	<path class="st0" d="M9.8,33.5v5.7c0,0.3,0.3,0.6,0.6,0.6h4.4c0.3,0,0.6-0.3,0.6-0.6v-10l-3.2,3.2C11.6,33.1,10.7,33.5,9.8,33.5
		L9.8,33.5z M9.8,33.5"/>
	<path class="st0" d="M17.7,29.2v10.1c0,0.3,0.3,0.6,0.6,0.6h4.4c0.3,0,0.6-0.3,0.6-0.6v-5.9c-1,0-1.9-0.4-2.6-1.1L17.7,29.2z
		 M17.7,29.2"/>
	<path class="st0" d="M25.5,32.7v6.6c0,0.3,0.3,0.6,0.6,0.6h4.4c0.3,0,0.6-0.3,0.6-0.6V27.1l-5,5C26,32.4,25.8,32.5,25.5,32.7
		L25.5,32.7z M25.5,32.7"/>
	<g>
		<path class="st0" d="M38.6,19.7l-5.2,5.2v14.3c0,0.3,0.3,0.6,0.6,0.6h4.4c0.3,0,0.6-0.3,0.6-0.6V20.1C38.9,20,38.8,19.9,38.6,19.7
			L38.6,19.7z M38.6,19.7"/>
		<path class="st0" d="M42.2,10.4c-0.2-0.2-0.5-0.3-0.9-0.3h-0.1c-2,0.1-4.1,0.2-6.1,0.3c-0.3,0-0.6,0-0.9,0.3
			c-0.1,0.1-0.2,0.2-0.2,0.3c-0.3,0.7,0.1,1.1,0.3,1.3l0.5,0.5c0.4,0.4,0.7,0.7,1.1,1.1L23.4,26.3l-5.6-5.6
			c-0.3-0.3-0.8-0.5-1.3-0.5c-0.5,0-0.9,0.2-1.2,0.5L8,28.1c-0.7,0.7-0.7,1.8,0,2.5l0.3,0.3c0.3,0.3,0.8,0.5,1.3,0.5
			c0.5,0,0.9-0.2,1.2-0.5l5.8-5.8l5.6,5.6c0.3,0.3,0.8,0.5,1.3,0.5c0.5,0,0.9-0.2,1.3-0.5l14-14l1.6,1.6c0.2,0.2,0.4,0.4,0.8,0.4
			c0.2,0,0.3,0,0.5-0.1c0.1-0.1,0.2-0.1,0.3-0.2c0.3-0.3,0.4-0.7,0.4-1c0.1-1.3,0.1-2.7,0.2-4l0.1-2C42.6,11,42.5,10.6,42.2,10.4
			L42.2,10.4z M42.2,10.4"/>
	</g>
</g>
</svg>
