<?xml version="1.0" encoding="utf-8"?>
<!-- Generator: Adobe Illustrator 21.1.0, SVG Export Plug-In . SVG Version: 6.00 Build 0)  -->
<svg version="1.1" id="Layer_1" xmlns="http://www.w3.org/2000/svg" xmlns:xlink="http://www.w3.org/1999/xlink" x="0px" y="0px"
	 viewBox="0 0 50 50" style="enable-background:new 0 0 50 50;" xml:space="preserve">
<style type="text/css">
	.st0{fill:#12DABD;}
</style>
<g>
	<path class="st0" d="M39.2,22.8l-3-0.5c-0.2-0.9-0.5-1.8-1-2.6l1.9-2.4c0.4-0.5,0.4-1.2,0-1.7l-1.2-1.4c-0.4-0.5-1.2-0.6-1.7-0.2
		l-2.6,1.6c-1.1-0.8-2.4-1.4-3.8-1.7l-0.5-3.1c-0.1-0.6-0.7-1.1-1.3-1.1h-1.8c-0.7,0-1.2,0.5-1.3,1.1l-0.5,3.1
		c-1.2,0.3-2.2,0.7-3.2,1.3l-2.5-1.8c-0.5-0.4-1.3-0.3-1.7,0.1l-1.3,1.3c-0.5,0.5-0.5,1.2-0.1,1.7l1.8,2.5c-0.6,1-1,2.1-1.3,3.2
		l-3.1,0.5c-0.6,0.1-1.1,0.7-1.1,1.3v1.8c0,0.7,0.5,1.2,1.1,1.3l3.1,0.5c0.2,0.9,0.6,1.8,1,2.7l-1.9,2.4c-0.4,0.5-0.4,1.2,0,1.7
		l1.2,1.4c0.4,0.5,1.2,0.6,1.7,0.2l2.6-1.7c1.1,0.8,2.4,1.3,3.7,1.7l0.5,3.1c0.1,0.6,0.7,1.1,1.3,1.1h1.8c0.7,0,1.2-0.5,1.3-1.1
		l0.5-3.1c1.1-0.3,2.2-0.7,3.2-1.3l2.6,1.8c0.5,0.4,1.3,0.3,1.7-0.1l1.3-1.3c0.5-0.5,0.5-1.2,0.1-1.7L34.9,31c0.6-1,1.1-2.1,1.3-3.2
		l3-0.5c0.6-0.1,1.1-0.7,1.1-1.3v-1.8C40.4,23.4,39.9,22.9,39.2,22.8L39.2,22.8z M25,30.8c-3.2,0-5.8-2.6-5.8-5.8
		c0-3.2,2.6-5.8,5.8-5.8c3.2,0,5.8,2.6,5.8,5.8C30.8,28.2,28.2,30.8,25,30.8L25,30.8z M25,30.8"/>
</g>
</svg>
