<?xml version="1.0" encoding="utf-8"?>
<!-- Generator: Adobe Illustrator 21.1.0, SVG Export Plug-In . SVG Version: 6.00 Build 0)  -->
<svg version="1.1" id="Layer_1" xmlns="http://www.w3.org/2000/svg" xmlns:xlink="http://www.w3.org/1999/xlink" x="0px" y="0px"
	 viewBox="0 0 50 50" style="enable-background:new 0 0 50 50;" xml:space="preserve">
<style type="text/css">
	.st0{fill:#12DABD;}
</style>
<g>
	<path class="st0" d="M23.7,25.9c0.5-1.3,1-2.3,1.4-3c0.3-0.5,0.5-1,0.8-1.4c0.2-0.4,0.5-0.7,0.9-1.1c0.4-0.4,0.8-0.6,1.2-0.8
		c0.5-0.2,1-0.3,1.5-0.3h4.5v3.4c0,0.2,0.1,0.3,0.2,0.4c0.1,0.1,0.2,0.2,0.4,0.2c0.2,0,0.3-0.1,0.4-0.2l5.7-5.7
		c0.1-0.1,0.2-0.2,0.2-0.4c0-0.2-0.1-0.3-0.2-0.4L35,11c-0.1-0.1-0.3-0.2-0.4-0.2c-0.2,0-0.3,0.1-0.4,0.2c-0.1,0.1-0.2,0.2-0.2,0.4
		v3.4h-4.5c-0.8,0-1.6,0.1-2.3,0.3c-0.7,0.2-1.3,0.4-1.9,0.7c-0.5,0.3-1.1,0.7-1.6,1.2c-0.5,0.5-0.9,1-1.3,1.5
		c-0.4,0.5-0.7,1.1-1.1,1.8c-0.4,0.7-0.7,1.3-1,1.9c-0.2,0.5-0.5,1.2-0.9,2c-0.5,1.3-1,2.3-1.4,3c-0.3,0.5-0.5,1-0.8,1.4
		c-0.2,0.4-0.5,0.7-0.9,1.1c-0.4,0.4-0.8,0.6-1.2,0.8c-0.5,0.2-1,0.3-1.5,0.3h-4c-0.2,0-0.3,0.1-0.4,0.2c-0.1,0.1-0.2,0.2-0.2,0.4
		v3.4c0,0.2,0.1,0.3,0.2,0.4c0.1,0.1,0.2,0.2,0.4,0.2h4c0.8,0,1.6-0.1,2.3-0.3c0.7-0.2,1.3-0.4,1.9-0.7c0.5-0.3,1.1-0.7,1.6-1.2
		c0.5-0.5,0.9-1,1.3-1.5c0.4-0.5,0.7-1.1,1.1-1.8c0.4-0.7,0.7-1.3,1-1.9C23.1,27.3,23.4,26.7,23.7,25.9L23.7,25.9z M23.7,25.9"/>
	<path class="st0" d="M9.7,19.3h4c0.5,0,1,0.1,1.4,0.3c0.4,0.2,0.8,0.4,1.1,0.6c0.3,0.2,0.6,0.6,0.9,1c0.3,0.4,0.5,0.8,0.7,1.1
		c0.2,0.3,0.4,0.8,0.7,1.3c0.9-2.1,1.7-3.7,2.4-4.8c-1.9-2.7-4.3-4-7.2-4h-4c-0.2,0-0.3,0.1-0.4,0.2c-0.1,0.1-0.2,0.2-0.2,0.4v3.4
		c0,0.2,0.1,0.3,0.2,0.4C9.4,19.3,9.6,19.3,9.7,19.3L9.7,19.3z M9.7,19.3"/>
	<path class="st0" d="M35,26.9c-0.1-0.1-0.3-0.2-0.4-0.2c-0.2,0-0.3,0.1-0.4,0.2c-0.1,0.1-0.2,0.2-0.2,0.4v3.4h-4.5
		c-0.5,0-1-0.1-1.4-0.3c-0.4-0.2-0.8-0.4-1.1-0.6c-0.3-0.2-0.6-0.6-0.9-1c-0.3-0.4-0.5-0.8-0.7-1.1c-0.2-0.3-0.4-0.8-0.7-1.3
		c-0.9,2.1-1.7,3.7-2.4,4.8c0.3,0.5,0.6,0.9,1,1.2c0.3,0.4,0.7,0.7,1,0.9c0.3,0.3,0.7,0.5,1,0.7c0.4,0.2,0.7,0.4,1,0.5
		c0.3,0.1,0.7,0.2,1.1,0.3c0.4,0.1,0.8,0.1,1.1,0.2c0.3,0,0.7,0.1,1.3,0.1c0.5,0,1,0,1.3,0c0.3,0,0.8,0,1.4,0c0.6,0,1.1,0,1.5,0v3.4
		c0,0.2,0.1,0.3,0.2,0.4c0.1,0.1,0.2,0.2,0.4,0.2c0.2,0,0.3-0.1,0.4-0.2l5.7-5.7c0.1-0.1,0.2-0.2,0.2-0.4c0-0.2-0.1-0.3-0.2-0.4
		L35,26.9z M35,26.9"/>
</g>
</svg>
