<?xml version="1.0" encoding="utf-8"?>
<!-- Generator: Adobe Illustrator 21.1.0, SVG Export Plug-In . SVG Version: 6.00 Build 0)  -->
<svg version="1.1" id="Layer_1" xmlns="http://www.w3.org/2000/svg" xmlns:xlink="http://www.w3.org/1999/xlink" x="0px" y="0px"
	 viewBox="0 0 50 50" style="enable-background:new 0 0 50 50;" xml:space="preserve">
<style type="text/css">
	.st0{fill:#12DABD;}
</style>
<g>
	<path class="st0" d="M24.7,23.1C24.4,23,24.1,23,23.9,23c-1.8,0-3.2,1.4-3.2,3.2c0,1.8,1.4,3.2,3.2,3.2c1.8,0,3.2-1.4,3.2-3.2
		c0-0.3,0-0.6-0.1-0.8l8.9-8.9l1.4,0.2l4.5-4.5l-3.4-0.5l-0.5-3.4l-4.5,4.5l0.2,1.4L24.7,23.1z M24.7,23.1"/>
	<g>
		<path class="st0" d="M24.2,20l2.6-2.6c-3.2-1.1-6.9-0.4-9.5,2.2c-3.6,3.6-3.6,9.4,0,13c3.6,3.6,9.4,3.6,13,0
			c2.6-2.6,3.3-6.3,2.2-9.5L30,25.8c0.1,1.7-0.5,3.4-1.8,4.7c-2.4,2.4-6.3,2.4-8.7,0s-2.4-6.3,0-8.7C20.8,20.5,22.5,19.9,24.2,20
			L24.2,20z M24.2,20"/>
		<path class="st0" d="M34.8,20.9c2.2,4.5,1.4,10.1-2.4,13.8c-4.8,4.8-12.5,4.8-17.2,0c-4.8-4.8-4.8-12.5,0-17.2
			c3.7-3.7,9.3-4.5,13.8-2.4l2.5-2.5c-5.9-3.4-13.7-2.6-18.7,2.5c-6.1,6.1-6.1,15.9,0,22c6.1,6.1,15.9,6.1,22,0
			c5.1-5.1,5.9-12.8,2.5-18.7L34.8,20.9z M34.8,20.9"/>
	</g>
</g>
</svg>
