<?xml version="1.0" encoding="utf-8"?>
<!-- Generator: Adobe Illustrator 21.1.0, SVG Export Plug-In . SVG Version: 6.00 Build 0)  -->
<svg version="1.1" id="Layer_1" xmlns="http://www.w3.org/2000/svg" xmlns:xlink="http://www.w3.org/1999/xlink" x="0px" y="0px"
	 viewBox="0 0 50 50" style="enable-background:new 0 0 50 50;" xml:space="preserve">
<style type="text/css">
	.st0{fill:#12DABD;}
</style>
<g>
	<g>
		<path class="st0" d="M34.9,14.1c-3.1,0.3-6.3-0.4-9.1-2c-0.5-0.3-1.1-0.3-1.6,0c-2.7,1.6-5.9,2.3-9.1,2c-0.8-0.1-1.5,0.5-1.5,1.3
			v10.3c0,6.2,4.9,11.3,11.4,12.5c6.5-1.2,11.4-6.3,11.4-12.5V15.3C36.4,14.6,35.7,14,34.9,14.1L34.9,14.1z M31.7,20.3l-5.4,9.6
			c-0.2,0.4-0.6,0.6-1,0.7c-0.1,0-0.2,0-0.2,0c-0.4,0-0.7-0.1-1-0.4l-5.2-4.7c-0.3-0.2-0.3-0.7,0-0.9l1-0.9c0.3-0.2,0.7-0.2,1,0
			l3.8,3.4l4.5-8.1c0.2-0.3,0.6-0.4,1-0.3l1.3,0.6C31.7,19.6,31.8,20,31.7,20.3L31.7,20.3z M31.7,20.3"/>
	</g>
</g>
</svg>
